<svg width="396" height="186" version="1.1" xmlns="http://www.w3.org/2000/svg" desc="Created with imagetracer.js version 1.2.6" ><path fill="rgb(0,0,0)" stroke="rgb(0,0,0)" stroke-width="1" opacity="0" d="M 0 0 L 396 0 L 396 186 L 0 186 L 0 0 Z M 282 34 L 274 37 Q 266 43 263 53 L 256 79 L 256 83 L 250 83 L 254 66 Q 256 54 252 49 Q 250 43 244 42 Q 235 41 231 44 L 225 50 L 221 62 L 222 76 L 227 85 L 232 88 L 232 91 L 225 103 L 217 111 L 211 112 Q 206 109 205 104 L 203 85 L 203 83 Q 206 76 204 66 L 206 57 L 206 47 L 202 43 L 195 44 L 191 49 L 189 59 L 189 69 L 188 70 L 188 95 Q 191 96 189 103 L 195 120 L 205 127 L 217 126 L 228 119 Q 238 108 246 94 L 255 95 Q 253 112 260 122 L 268 127 Q 276 128 281 126 L 289 120 Q 292 125 299 127 Q 310 129 316 123 L 323 112 L 323 109 L 328 109 Q 327 117 330 122 L 338 127 L 345 127 L 346 127 L 342 130 Q 329 139 324 155 L 325 165 L 332 170 Q 341 172 345 168 L 351 161 L 359 140 L 366 102 L 367 84 L 365 83 L 360 84 L 357 80 Q 346 79 341 84 L 332 95 Q 330 98 324 97 Q 324 91 320 87 Q 317 82 311 80 L 303 80 L 295 83 Q 286 88 285 100 L 285 102 Q 282 103 284 110 L 279 114 L 272 114 L 269 111 L 287 78 L 292 62 L 292 54 L 293 53 L 290 40 Q 288 35 282 34 Z M 70 42 L 69 43 L 61 43 L 52 45 L 39 51 L 35 55 L 34 59 L 35 63 L 39 65 Q 49 58 64 55 L 76 55 L 85 58 Q 92 62 94 72 L 94 88 L 88 103 Q 82 112 70 114 L 56 114 L 57 113 L 57 106 L 61 84 L 65 72 L 65 65 L 60 62 L 54 63 L 49 69 L 49 73 L 46 82 L 41 110 L 41 123 L 46 126 L 51 127 L 70 127 Q 71 125 76 126 Q 88 123 97 115 L 107 100 L 110 88 Q 113 66 104 56 Q 98 48 88 44 L 70 42 Z M 156 43 L 155 44 L 143 45 L 131 51 Q 125 55 123 63 Q 121 72 125 77 L 132 83 L 124 86 L 116 94 L 113 105 L 114 112 L 117 117 L 128 124 L 141 127 L 162 127 Q 163 125 169 126 L 181 123 L 188 119 L 190 115 Q 191 109 189 107 L 184 107 L 170 112 L 155 113 L 154 114 L 141 113 L 135 111 L 130 107 L 129 103 L 131 98 Q 136 89 151 90 L 153 90 L 156 89 Q 159 87 158 80 L 155 77 Q 147 78 143 75 L 139 71 L 140 63 Q 143 57 151 56 Q 163 54 166 61 Q 168 67 165 69 L 166 75 L 169 76 L 177 75 L 180 70 L 181 65 Q 181 57 178 53 L 169 45 L 158 43 L 156 43 Z " /><path fill="rgb(0,0,0)" stroke="rgb(0,0,0)" stroke-width="1" opacity="0" d="M 279.5 46 L 281 47.5 L 281 59.5 L 278 71.5 L 273 83.5 L 268.5 90 L 268 88.5 L 273 59.5 L 276 50.5 L 279.5 46 Z " /><path fill="rgb(0,0,0)" stroke="rgb(0,0,0)" stroke-width="1" opacity="0" d="M 236.5 55 L 240 56.5 L 241 61.5 L 238 77 Q 235.3 78.1 236 75.5 Q 230.9 71.1 233 59.5 L 236.5 55 Z " /><path fill="rgb(0,0,0)" stroke="rgb(0,0,0)" stroke-width="1" opacity="0" d="M 352.5 91 Q 354.8 90.3 354 92.5 L 351 107.5 L 346.5 115 Q 342.8 115.8 342 113.5 L 341 110.5 L 345 97.5 L 350.5 92 L 352.5 91 Z " /><path fill="rgb(0,0,0)" stroke="rgb(0,0,0)" stroke-width="1" opacity="0" d="M 304.5 92 L 306 100.5 L 311 106.5 L 311 108.5 L 305.5 115 Q 299.8 115.8 299 111.5 Q 296.5 108 298 100.5 L 302.5 93 L 304.5 92 Z " /><path fill="rgb(0,0,0)" stroke="rgb(0,0,0)" stroke-width="1" opacity="0" d="M 345.5 140 L 346 142.5 L 341 155.5 L 337.5 159 L 335 157.5 Q 336.4 144.9 345.5 140 Z " /><path fill="rgb(66,96,237)" stroke="rgb(66,96,237)" stroke-width="1" opacity="0.996078431372549" d="M 280.5 35 Q 286.9 35.1 289 39.5 L 291 43.5 L 292 52.5 L 291 53.5 L 291 61.5 L 286 77.5 L 281 88.5 L 268 109.5 L 271.5 115 L 278.5 115 L 285 109.5 Q 283.9 91.9 293.5 85 Q 298.5 79.5 310.5 81 Q 316.3 82.3 319 86.5 Q 323 90.8 323 98 Q 330.3 99 333 94.5 L 340.5 85 Q 345.8 79.5 357 81 L 358.5 84 Q 364.5 82.5 366 85.5 L 367 89.5 L 366 90.5 L 366 96.5 L 365 97.5 L 361 126.5 L 357 143.5 L 350 160.5 L 344.5 167 Q 340.5 170.5 331.5 169 L 326 164.5 Q 323.5 161 325 153.5 Q 329.3 140.3 339.5 133 L 350 124.5 L 349.5 123 Q 346.3 127.3 337.5 126 L 331 121.5 Q 327.2 116.4 328 108 Q 323.4 106.8 322 109.5 Q 320 119.5 312.5 124 Q 307.4 127.4 297.5 126 L 288.5 119 L 280.5 125 Q 275.7 127.3 267.5 126 L 261 121.5 L 256 109.5 L 256 95.5 L 254.5 94 Q 247.4 94.7 244 93 Q 237.4 110.1 223.5 121 L 213.5 126 L 204.5 126 L 196 119.5 L 191 107.5 L 189 96.5 L 189 66.5 L 190 65.5 L 191 51.5 L 194.5 45 L 200.5 44 L 205 46.5 L 205 57.5 L 203 66.5 L 203 98.5 L 206 108.5 L 210.5 113 L 214.5 113 L 221 109 L 231 94.5 L 233 88.5 L 228 84.5 Q 223.3 79.7 222 71.5 L 222 59.5 Q 223.5 49.5 230.5 45 Q 234.8 41.3 244.5 43 L 251 48.5 Q 255 55 253 67.5 L 249 82.5 Q 250.3 85.3 255.5 84 L 257 82.5 L 258 72.5 L 263 54.5 Q 266.6 44.6 273.5 38 L 280.5 35 Z M 280 45 L 276 49 L 273 57 L 268 81 L 269 92 Q 278 78 282 59 L 282 48 L 280 45 Z M 236 54 L 232 60 Q 230 71 235 77 L 238 78 L 241 68 Q 243 59 240 56 Q 239 53 236 54 Z M 353 90 L 349 92 Q 340 98 341 114 Q 342 117 347 116 L 351 111 L 355 92 L 353 90 Z M 305 91 L 303 92 Q 298 95 297 101 Q 296 110 299 114 L 303 116 L 309 114 L 312 108 L 306 98 Q 307 90 305 91 Z M 347 138 L 344 139 L 338 147 L 334 156 L 335 159 L 338 160 L 343 154 L 347 142 L 347 138 Z " /><path fill="rgb(66,96,237)" stroke="rgb(66,96,237)" stroke-width="1" opacity="0.996078431372549" d="M 66.5 43 L 77.5 43 L 87.5 45 Q 97.2 48.3 103 55.5 Q 111.9 66.2 109 88.5 Q 105.6 107.6 92.5 117 Q 85.7 122.7 75.5 125 L 70.5 126 L 50.5 126 L 45.5 125 L 42 122.5 L 41 117.5 L 42 116.5 L 42 108.5 L 47 80.5 L 50 68.5 L 53.5 64 L 59.5 63 L 64 64 L 65 66.5 L 59 88.5 L 57 105.5 L 56 106.5 L 56 115 Q 80.5 117.3 89 102.5 Q 93.5 96 95 86.5 L 95 71.5 L 89 60 L 79.5 55 L 67.5 54 L 50.5 58 L 38.5 64 L 36 63 L 35 57.5 L 38.5 52 L 54.5 45 L 65.5 44 L 66.5 43 Z " /><path fill="rgb(66,96,237)" stroke="rgb(66,96,237)" stroke-width="1" opacity="0.996078431372549" d="M 152.5 44 L 159.5 44 L 168.5 46 L 177 52.5 Q 180.9 56.6 180 65.5 L 177 74 Q 174.6 75.8 168.5 75 Q 164.5 73.5 166 66.5 L 167 61.5 L 162.5 56 Q 159 53.5 151.5 55 Q 143 56.5 139 62.5 L 138 70.5 L 142.5 76 L 147.5 78 Q 154.3 77.1 157 79 Q 158.8 86.1 154.5 88 L 140.5 90 Q 133.3 91.8 130 97.5 L 129 106.5 L 131 110 L 140.5 114 Q 148.7 112.3 152.5 115 L 153.5 114 L 163.5 114 L 183.5 108 L 187.5 108 Q 190.3 109.3 189 114.5 L 184.5 120 L 177.5 123 L 161.5 126 L 139.5 126 L 127.5 123 L 118 116.5 Q 112.8 112.2 114 101.5 Q 116 91.5 123.5 87 L 134 82.5 L 126 76.5 L 123 66.5 L 124 61.5 L 128 54 L 139.5 47 L 152.5 44 Z " /><path fill="rgb(73,94,203)" stroke="rgb(73,94,203)" stroke-width="1" opacity="0.5411764705882353" d="M 281.5 34 Q 287.9 34.7 290 39.5 L 291 42.5 L 290 42.5 L 285.5 36 Q 280.7 36.1 281.5 34 Z " /><path fill="rgb(73,94,203)" stroke="rgb(73,94,203)" stroke-width="1" opacity="0.5411764705882353" d="M 277.5 35 L 280 35.5 L 277.5 36 L 277.5 35 Z " /><path fill="rgb(73,94,203)" stroke="rgb(73,94,203)" stroke-width="1" opacity="0.5411764705882353" d="M 275.5 36 L 274.5 38 L 270 41.5 L 263.5 54 L 263 52.5 Q 266.3 42.8 273.5 37 L 275.5 36 Z " /><path fill="rgb(73,94,203)" stroke="rgb(73,94,203)" stroke-width="1" opacity="0.5411764705882353" d="M 69.5 42 L 75 42.5 L 69.5 43 L 69.5 42 Z " /><path fill="rgb(73,94,203)" stroke="rgb(73,94,203)" stroke-width="1" opacity="0.5411764705882353" d="M 235.5 42 L 244 42.5 L 235.5 43 L 235.5 42 Z " /><path fill="rgb(73,94,203)" stroke="rgb(73,94,203)" stroke-width="1" opacity="0.5411764705882353" d="M 60.5 43 L 66 43.5 L 60.5 44 L 60.5 43 Z " /><path fill="rgb(73,94,203)" stroke="rgb(73,94,203)" stroke-width="1" opacity="0.5411764705882353" d="M 78.5 43 L 83.5 43 L 92.5 46 L 104 55.5 Q 112.7 65.8 110 87.5 L 109 87.5 Q 112 61 98.5 51 L 87.5 45 L 78.5 44 L 78.5 43 Z " /><path fill="rgb(73,94,203)" stroke="rgb(73,94,203)" stroke-width="1" opacity="0.5411764705882353" d="M 157.5 43 L 168.5 45 L 178 52.5 L 180 58.5 L 179 58.5 Q 177.9 51.1 172.5 48 L 165.5 45 L 157.5 44 L 157.5 43 Z " /><path fill="rgb(73,94,203)" stroke="rgb(73,94,203)" stroke-width="1" opacity="0.5411764705882353" d="M 198.5 43 Q 204.7 42.3 206 46.5 L 205.5 57 L 205 46.5 L 203.5 45 L 198.5 44 L 198.5 43 Z " /><path fill="rgb(73,94,203)" stroke="rgb(73,94,203)" stroke-width="1" opacity="0.5411764705882353" d="M 232.5 43 L 234 43.5 L 226 49.5 L 224.5 52 L 225 50.5 L 230.5 44 L 232.5 43 Z " /><path fill="rgb(73,94,203)" stroke="rgb(73,94,203)" stroke-width="1" opacity="0.5411764705882353" d="M 245.5 43 L 252 48.5 Q 255.7 54.3 254 65.5 L 253 65.5 Q 255.4 49.1 246.5 44 L 245.5 43 Z " /><path fill="rgb(73,94,203)" stroke="rgb(73,94,203)" stroke-width="1" opacity="0.5411764705882353" d="M 55.5 44 L 59 44.5 L 55.5 45 L 55.5 44 Z " /><path fill="rgb(73,94,203)" stroke="rgb(73,94,203)" stroke-width="1" opacity="0.5411764705882353" d="M 146.5 44 L 152 44.5 L 146.5 45 L 146.5 44 Z " /><path fill="rgb(73,94,203)" stroke="rgb(73,94,203)" stroke-width="1" opacity="0.5411764705882353" d="M 194.5 44 L 197 44.5 L 193 46.5 L 191.5 51 L 191 48.5 L 194.5 44 Z " /><path fill="rgb(73,94,203)" stroke="rgb(73,94,203)" stroke-width="1" opacity="0.5411764705882353" d="M 291.5 44 L 292 49.5 L 291 49.5 L 291.5 44 Z " /><path fill="rgb(73,94,203)" stroke="rgb(73,94,203)" stroke-width="1" opacity="0.5411764705882353" d="M 51.5 45 L 54 45.5 Q 42.7 47.7 36 54.5 L 35.5 57 L 35 54.5 Q 41.2 47.7 51.5 45 Z " /><path fill="rgb(73,94,203)" stroke="rgb(73,94,203)" stroke-width="1" opacity="0.5411764705882353" d="M 142.5 45 L 145 45.5 L 133.5 50 L 128 54 L 124.5 61 L 124 59.5 L 130.5 51 L 142.5 45 Z " /><path fill="rgb(73,94,203)" stroke="rgb(73,94,203)" stroke-width="1" opacity="0.5411764705882353" d="M 279.5 45 L 282 47.5 L 282 58.5 L 281 58.5 L 281 47.5 L 279.5 46 L 276.5 50 L 276 48.5 L 279.5 45 Z " /><path fill="rgb(73,94,203)" stroke="rgb(73,94,203)" stroke-width="1" opacity="0.5411764705882353" d="M 275.5 51 L 276 52.5 L 273.5 59 L 273 56.5 L 275.5 51 Z " /><path fill="rgb(73,94,203)" stroke="rgb(73,94,203)" stroke-width="1" opacity="0.5411764705882353" d="M 292.5 51 L 293 52.5 L 292 53.5 L 292 61.5 L 288.5 72 L 288 69.5 L 291 61.5 Q 289.5 54 292.5 51 Z " /><path fill="rgb(73,94,203)" stroke="rgb(73,94,203)" stroke-width="1" opacity="0.5411764705882353" d="M 190.5 52 L 191 56.5 L 190 56.5 L 190.5 52 Z " /><path fill="rgb(73,94,203)" stroke="rgb(73,94,203)" stroke-width="1" opacity="0.5411764705882353" d="M 67.5 54 L 79.5 55 L 89 60 L 95 71.5 L 95 86.5 L 94 86.5 Q 97.1 64.4 84.5 58 L 75.5 55 L 67.5 55 L 67.5 54 Z " /><path fill="rgb(73,94,203)" stroke="rgb(73,94,203)" stroke-width="1" opacity="0.5411764705882353" d="M 235.5 54 Q 239.3 53.3 240 55.5 L 238.5 55 Q 234.5 54.5 234 57.5 L 233 59.5 L 233 70.5 L 236 77 L 238 77.5 L 236.5 78 Q 229.9 73.1 232 59.5 L 235.5 54 Z " /><path fill="rgb(73,94,203)" stroke="rgb(73,94,203)" stroke-width="1" opacity="0.5411764705882353" d="M 60.5 55 L 63 55.5 L 60.5 56 L 60.5 55 Z " /><path fill="rgb(73,94,203)" stroke="rgb(73,94,203)" stroke-width="1" opacity="0.5411764705882353" d="M 151.5 55 Q 163 53 166 59.5 L 162.5 57 Q 159 54.5 151.5 56 L 151.5 55 Z " /><path fill="rgb(73,94,203)" stroke="rgb(73,94,203)" stroke-width="1" opacity="0.5411764705882353" d="M 262.5 55 L 263 56.5 L 260.5 63 L 260 60.5 L 262.5 55 Z " /><path fill="rgb(73,94,203)" stroke="rgb(73,94,203)" stroke-width="1" opacity="0.5411764705882353" d="M 56.5 56 L 59 56.5 L 56.5 57 L 56.5 56 Z " /><path fill="rgb(73,94,203)" stroke="rgb(73,94,203)" stroke-width="1" opacity="0.5411764705882353" d="M 147.5 56 L 150 56.5 L 147.5 57 L 147.5 56 Z " /><path fill="rgb(73,94,203)" stroke="rgb(73,94,203)" stroke-width="1" opacity="0.5411764705882353" d="M 222.5 56 L 223 58.5 L 222 58.5 L 222.5 56 Z " /><path fill="rgb(73,94,203)" stroke="rgb(73,94,203)" stroke-width="1" opacity="0.5411764705882353" d="M 53.5 57 L 55 57.5 L 43.5 63 L 44.5 61 L 53.5 57 Z " /><path fill="rgb(73,94,203)" stroke="rgb(73,94,203)" stroke-width="1" opacity="0.5411764705882353" d="M 145.5 57 L 144.5 59 L 140 62.5 L 139 70.5 L 142.5 75 Q 146.5 78 154.5 77 L 158 79.5 Q 159.3 86.8 155.5 89 L 152.5 90 L 153.5 88 L 157 85.5 Q 158.5 78.5 155.5 79 L 144.5 77 L 139 72.5 L 138 64.5 L 143.5 58 L 145.5 57 Z " /><path fill="rgb(73,94,203)" stroke="rgb(73,94,203)" stroke-width="1" opacity="0.5411764705882353" d="M 240.5 57 L 241 59.5 L 240 59.5 L 240.5 57 Z " /><path fill="rgb(73,94,203)" stroke="rgb(73,94,203)" stroke-width="1" opacity="0.5411764705882353" d="M 189.5 58 L 190 65.5 L 189 65.5 L 189.5 58 Z " /><path fill="rgb(73,94,203)" stroke="rgb(73,94,203)" stroke-width="1" opacity="0.5411764705882353" d="M 204.5 58 L 205 64.5 L 204 64.5 L 204.5 58 Z " /><path fill="rgb(73,94,203)" stroke="rgb(73,94,203)" stroke-width="1" opacity="0.5411764705882353" d="M 180.5 60 L 181 64.5 L 180 64.5 L 180.5 60 Z " /><path fill="rgb(73,94,203)" stroke="rgb(73,94,203)" stroke-width="1" opacity="0.5411764705882353" d="M 272.5 60 L 273 62.5 L 272 62.5 L 272.5 60 Z " /><path fill="rgb(73,94,203)" stroke="rgb(73,94,203)" stroke-width="1" opacity="0.5411764705882353" d="M 280.5 60 L 281 63.5 L 280 63.5 L 280.5 60 Z " /><path fill="rgb(73,94,203)" stroke="rgb(73,94,203)" stroke-width="1" opacity="0.5411764705882353" d="M 35.5 61 L 36 63 L 39.5 64 L 41.5 63 L 41.5 64 L 38.5 65 L 35 62.5 L 35.5 61 Z " /><path fill="rgb(73,94,203)" stroke="rgb(73,94,203)" stroke-width="1" opacity="0.5411764705882353" d="M 166.5 61 L 167 65.5 L 166 65.5 L 166.5 61 Z " /><path fill="rgb(73,94,203)" stroke="rgb(73,94,203)" stroke-width="1" opacity="0.5411764705882353" d="M 221.5 61 L 222 69.5 L 221 69.5 L 221.5 61 Z " /><path fill="rgb(73,94,203)" stroke="rgb(73,94,203)" stroke-width="1" opacity="0.5411764705882353" d="M 58.5 62 L 65 64.5 L 64.5 66 L 64 64 L 58.5 63 L 53.5 64 L 51 66.5 L 49.5 72 L 49 68.5 L 53.5 63 L 58.5 62 Z " /><path fill="rgb(73,94,203)" stroke="rgb(73,94,203)" stroke-width="1" opacity="0.5411764705882353" d="M 123.5 62 L 124 65.5 L 123 65.5 L 123.5 62 Z " /><path fill="rgb(73,94,203)" stroke="rgb(73,94,203)" stroke-width="1" opacity="0.5411764705882353" d="M 240.5 62 L 241 67.5 L 240 67.5 L 240.5 62 Z " /><path fill="rgb(73,94,203)" stroke="rgb(73,94,203)" stroke-width="1" opacity="0.5411764705882353" d="M 259.5 64 L 260 67.5 L 258.5 72 L 258 68.5 L 259.5 64 Z " /><path fill="rgb(73,94,203)" stroke="rgb(73,94,203)" stroke-width="1" opacity="0.5411764705882353" d="M 271.5 64 L 272 67.5 L 270.5 73 L 270 68.5 L 271.5 64 Z " /><path fill="rgb(73,94,203)" stroke="rgb(73,94,203)" stroke-width="1" opacity="0.5411764705882353" d="M 279.5 65 L 280 67.5 L 278.5 71 L 278 68.5 L 279.5 65 Z " /><path fill="rgb(73,94,203)" stroke="rgb(73,94,203)" stroke-width="1" opacity="0.5411764705882353" d="M 179.5 66 L 180 69.5 L 176.5 75 L 168.5 76 L 166 75 L 165 68.5 L 166 68.5 Q 165 74 168.5 75 Q 174.6 75.8 177 74 L 179.5 66 Z " /><path fill="rgb(73,94,203)" stroke="rgb(73,94,203)" stroke-width="1" opacity="0.5411764705882353" d="M 203.5 66 L 204 79.5 L 203 79.5 L 203.5 66 Z " /><path fill="rgb(73,94,203)" stroke="rgb(73,94,203)" stroke-width="1" opacity="0.5411764705882353" d="M 64.5 67 L 65 71.5 L 63 75.5 L 59.5 93 L 59 88.5 L 64.5 67 Z " /><path fill="rgb(73,94,203)" stroke="rgb(73,94,203)" stroke-width="1" opacity="0.5411764705882353" d="M 123.5 68 Q 124.3 77.2 130.5 81 L 134 82.5 Q 122.7 85.2 117 93.5 L 115.5 97 L 115 95.5 L 123.5 86 L 132 82.5 L 125 76.5 Q 121.9 73.5 123.5 68 Z " /><path fill="rgb(73,94,203)" stroke="rgb(73,94,203)" stroke-width="1" opacity="0.5411764705882353" d="M 252.5 68 L 253 71.5 L 252 71.5 L 252.5 68 Z " /><path fill="rgb(73,94,203)" stroke="rgb(73,94,203)" stroke-width="1" opacity="0.5411764705882353" d="M 188.5 69 L 189 94.5 L 188 94.5 L 188.5 69 Z " /><path fill="rgb(73,94,203)" stroke="rgb(73,94,203)" stroke-width="1" opacity="0.5411764705882353" d="M 239.5 69 L 240 72.5 L 238.5 76 L 238 73.5 L 239.5 69 Z " /><path fill="rgb(73,94,203)" stroke="rgb(73,94,203)" stroke-width="1" opacity="0.5411764705882353" d="M 222.5 72 L 224 77.5 L 223 77.5 L 222.5 72 Z " /><path fill="rgb(73,94,203)" stroke="rgb(73,94,203)" stroke-width="1" opacity="0.5411764705882353" d="M 277.5 72 L 278 73.5 L 273.5 83 L 273 81.5 L 277.5 72 Z " /><path fill="rgb(73,94,203)" stroke="rgb(73,94,203)" stroke-width="1" opacity="0.5411764705882353" d="M 48.5 73 L 49 75.5 L 48 75.5 L 48.5 73 Z " /><path fill="rgb(73,94,203)" stroke="rgb(73,94,203)" stroke-width="1" opacity="0.5411764705882353" d="M 251.5 73 L 252 75.5 L 251 75.5 L 251.5 73 Z " /><path fill="rgb(73,94,203)" stroke="rgb(73,94,203)" stroke-width="1" opacity="0.5411764705882353" d="M 257.5 73 L 258 76.5 L 257 76.5 L 257.5 73 Z " /><path fill="rgb(73,94,203)" stroke="rgb(73,94,203)" stroke-width="1" opacity="0.5411764705882353" d="M 287.5 73 L 288 74.5 L 283.5 84 L 283 82.5 L 287.5 73 Z " /><path fill="rgb(73,94,203)" stroke="rgb(73,94,203)" stroke-width="1" opacity="0.5411764705882353" d="M 269.5 74 L 270 78.5 L 269 78.5 L 269.5 74 Z " /><path fill="rgb(73,94,203)" stroke="rgb(73,94,203)" stroke-width="1" opacity="0.5411764705882353" d="M 47.5 77 L 48 79.5 L 47 79.5 L 47.5 77 Z " /><path fill="rgb(73,94,203)" stroke="rgb(73,94,203)" stroke-width="1" opacity="0.5411764705882353" d="M 250.5 77 L 251 79.5 L 250 83 L 256 83 L 256 78.5 L 257 78.5 Q 258 83 255.5 84 Q 250.3 85.3 249 82.5 L 250.5 77 Z " /><path fill="rgb(73,94,203)" stroke="rgb(73,94,203)" stroke-width="1" opacity="0.5411764705882353" d="M 224.5 79 L 229.5 86 L 233 88.5 L 229.5 96 L 230 94.5 L 232 88 L 227 84.5 L 224 80.5 L 224.5 79 Z " /><path fill="rgb(73,94,203)" stroke="rgb(73,94,203)" stroke-width="1" opacity="0.5411764705882353" d="M 268.5 80 L 269 87.5 L 268 87.5 L 268.5 80 Z " /><path fill="rgb(73,94,203)" stroke="rgb(73,94,203)" stroke-width="1" opacity="0.5411764705882353" d="M 302.5 80 Q 315.8 78.8 320 86.5 L 323 93.5 L 322 93.5 Q 320.9 86.1 315.5 83 Q 311.1 79.9 302.5 81 L 302.5 80 Z " /><path fill="rgb(73,94,203)" stroke="rgb(73,94,203)" stroke-width="1" opacity="0.5411764705882353" d="M 349.5 80 Q 356.2 78.3 358 81.5 L 359 83.5 L 357 82.5 L 356.5 81 L 349.5 81 L 349.5 80 Z " /><path fill="rgb(73,94,203)" stroke="rgb(73,94,203)" stroke-width="1" opacity="0.5411764705882353" d="M 46.5 81 L 47 84.5 L 46 84.5 L 46.5 81 Z " /><path fill="rgb(73,94,203)" stroke="rgb(73,94,203)" stroke-width="1" opacity="0.5411764705882353" d="M 298.5 81 L 301 81.5 Q 293.6 83.1 290 88.5 L 285.5 99 L 285 96.5 Q 287.8 87.8 294.5 83 L 298.5 81 Z " /><path fill="rgb(73,94,203)" stroke="rgb(73,94,203)" stroke-width="1" opacity="0.5411764705882353" d="M 345.5 81 L 348 81.5 Q 339.5 84 335 90.5 L 330.5 97 L 329 96.5 L 332 94.5 L 340.5 84 L 345.5 81 Z " /><path fill="rgb(73,94,203)" stroke="rgb(73,94,203)" stroke-width="1" opacity="0.5411764705882353" d="M 360.5 83 L 367 84 L 366.5 87 L 364.5 84 Q 359.5 85 360.5 83 Z " /><path fill="rgb(73,94,203)" stroke="rgb(73,94,203)" stroke-width="1" opacity="0.5411764705882353" d="M 272.5 84 L 272 85.5 L 268.5 92 L 268 90.5 L 272.5 84 Z " /><path fill="rgb(73,94,203)" stroke="rgb(73,94,203)" stroke-width="1" opacity="0.5411764705882353" d="M 282.5 85 L 283 86.5 L 281 87.5 L 282.5 85 Z " /><path fill="rgb(73,94,203)" stroke="rgb(73,94,203)" stroke-width="1" opacity="0.5411764705882353" d="M 45.5 86 L 46 89.5 L 45 89.5 L 45.5 86 Z " /><path fill="rgb(73,94,203)" stroke="rgb(73,94,203)" stroke-width="1" opacity="0.5411764705882353" d="M 203.5 87 L 205 103.5 Q 206.3 109.3 210.5 112 L 216.5 111 L 225 102.5 L 228.5 97 L 228 98.5 L 221 109 L 214.5 113 L 210.5 113 Q 205.5 110 204 103.5 L 203.5 87 Z " /><path fill="rgb(73,94,203)" stroke="rgb(73,94,203)" stroke-width="1" opacity="0.5411764705882353" d="M 93.5 88 L 94 91.5 Q 90.7 103.7 81.5 110 Q 73.4 116.9 56.5 115 L 56.5 114 Q 80 116 88 102.5 L 93.5 88 Z " /><path fill="rgb(73,94,203)" stroke="rgb(73,94,203)" stroke-width="1" opacity="0.5411764705882353" d="M 108.5 89 L 109 93.5 Q 105.3 106.8 96.5 115 Q 87.8 124.3 71.5 126 L 71.5 125 L 75.5 125 L 86.5 121 L 101 108.5 Q 107 101 108.5 89 Z " /><path fill="rgb(73,94,203)" stroke="rgb(73,94,203)" stroke-width="1" opacity="0.5411764705882353" d="M 144.5 89 L 151 89.5 L 138.5 92 L 138.5 91 L 144.5 89 Z " /><path fill="rgb(73,94,203)" stroke="rgb(73,94,203)" stroke-width="1" opacity="0.5411764705882353" d="M 280.5 89 L 280 90.5 L 268.5 110 L 268 108.5 L 280.5 89 Z " /><path fill="rgb(73,94,203)" stroke="rgb(73,94,203)" stroke-width="1" opacity="0.5411764705882353" d="M 352.5 90 L 355 91.5 L 353.5 91 Q 347.4 92.4 345 97.5 Q 341.5 102 341.5 110 L 341 104.5 Q 343.3 96.8 348.5 92 L 352.5 90 Z " /><path fill="rgb(73,94,203)" stroke="rgb(73,94,203)" stroke-width="1" opacity="0.5411764705882353" d="M 366.5 90 L 367 94.5 L 366 94.5 L 366.5 90 Z " /><path fill="rgb(73,94,203)" stroke="rgb(73,94,203)" stroke-width="1" opacity="0.5411764705882353" d="M 44.5 91 L 45 94.5 L 44 94.5 L 44.5 91 Z " /><path fill="rgb(73,94,203)" stroke="rgb(73,94,203)" stroke-width="1" opacity="0.5411764705882353" d="M 304.5 91 Q 307.3 90.4 306 96.5 L 305 96.5 L 304.5 92 L 300 95.5 Q 296.9 100.4 297.5 109 L 297 100.5 Q 298.3 94.8 302.5 92 L 304.5 91 Z " /><path fill="rgb(73,94,203)" stroke="rgb(73,94,203)" stroke-width="1" opacity="0.5411764705882353" d="M 135.5 92 L 137 92.5 L 131 97.5 L 129.5 102 L 129 99.5 L 135.5 92 Z " /><path fill="rgb(73,94,203)" stroke="rgb(73,94,203)" stroke-width="1" opacity="0.5411764705882353" d="M 244 93 L 247 93.5 L 244 95.5 Q 237.9 109.4 227.5 119 L 216.5 126 L 204.5 127 L 195 119.5 Q 191 113.5 190 104.5 L 191 104.5 Q 192.3 117.7 200.5 124 Q 204.5 127.5 213.5 126 Q 226.8 121.3 234 110.5 Q 240.9 103.1 244 93 Z " /><path fill="rgb(73,94,203)" stroke="rgb(73,94,203)" stroke-width="1" opacity="0.5411764705882353" d="M 353.5 93 L 354 96.5 L 353 96.5 L 353.5 93 Z " /><path fill="rgb(73,94,203)" stroke="rgb(73,94,203)" stroke-width="1" opacity="0.5411764705882353" d="M 58.5 94 L 59 98.5 L 57.5 105 L 57 99.5 L 58.5 94 Z " /><path fill="rgb(73,94,203)" stroke="rgb(73,94,203)" stroke-width="1" opacity="0.5411764705882353" d="M 248.5 94 Q 254.5 92.5 256 95.5 L 255.5 109 L 255 95 L 248.5 95 L 248.5 94 Z " /><path fill="rgb(73,94,203)" stroke="rgb(73,94,203)" stroke-width="1" opacity="0.5411764705882353" d="M 323.5 95 L 324 97 L 328 97.5 L 323 98 L 323.5 95 Z " /><path fill="rgb(73,94,203)" stroke="rgb(73,94,203)" stroke-width="1" opacity="0.5411764705882353" d="M 43.5 96 L 44 100.5 L 42.5 108 L 42 101.5 L 43.5 96 Z " /><path fill="rgb(73,94,203)" stroke="rgb(73,94,203)" stroke-width="1" opacity="0.5411764705882353" d="M 189.5 97 L 190 102.5 L 189 102.5 L 189.5 97 Z " /><path fill="rgb(73,94,203)" stroke="rgb(73,94,203)" stroke-width="1" opacity="0.5411764705882353" d="M 365.5 97 L 366 101.5 L 365 101.5 L 365.5 97 Z " /><path fill="rgb(73,94,203)" stroke="rgb(73,94,203)" stroke-width="1" opacity="0.5411764705882353" d="M 114.5 98 L 115 100.5 L 114 100.5 L 114.5 98 Z " /><path fill="rgb(73,94,203)" stroke="rgb(73,94,203)" stroke-width="1" opacity="0.5411764705882353" d="M 306.5 98 L 312 107.5 L 311 107.5 L 306 100.5 L 306.5 98 Z " /><path fill="rgb(73,94,203)" stroke="rgb(73,94,203)" stroke-width="1" opacity="0.5411764705882353" d="M 352.5 99 L 353 102.5 L 352 102.5 L 352.5 99 Z " /><path fill="rgb(73,94,203)" stroke="rgb(73,94,203)" stroke-width="1" opacity="0.5411764705882353" d="M 284.5 102 L 285 109.5 L 278.5 115 L 271.5 115 L 269 111.5 L 270 111.5 L 271.5 114 L 278.5 114 L 284 109.5 L 284.5 102 Z " /><path fill="rgb(73,94,203)" stroke="rgb(73,94,203)" stroke-width="1" opacity="0.5411764705882353" d="M 129.5 103 Q 129.6 109.4 134.5 111 Q 140.1 113.9 149 113.5 L 140.5 114 L 131 110 L 129 106.5 L 129.5 103 Z " /><path fill="rgb(73,94,203)" stroke="rgb(73,94,203)" stroke-width="1" opacity="0.5411764705882353" d="M 364.5 103 L 365 107.5 L 364 107.5 L 364.5 103 Z " /><path fill="rgb(73,94,203)" stroke="rgb(73,94,203)" stroke-width="1" opacity="0.5411764705882353" d="M 351.5 104 L 352 106.5 L 351 106.5 L 351.5 104 Z " /><path fill="rgb(73,94,203)" stroke="rgb(73,94,203)" stroke-width="1" opacity="0.5411764705882353" d="M 56.5 106 L 57 112.5 L 56 112.5 L 56.5 106 Z " /><path fill="rgb(73,94,203)" stroke="rgb(73,94,203)" stroke-width="1" opacity="0.5411764705882353" d="M 183.5 107 Q 189.6 105.8 189 108.5 Q 191.3 109.7 190 114.5 L 188 119 L 180.5 123 L 168.5 126 Q 163 124.5 161.5 127 L 140.5 127 L 140.5 126 L 161.5 126 Q 163 123.5 168.5 125 L 180.5 122 L 188 116.5 L 189 109.5 Q 188 107 183.5 108 L 174.5 111 L 174.5 110 L 183.5 107 Z " /><path fill="rgb(73,94,203)" stroke="rgb(73,94,203)" stroke-width="1" opacity="0.5411764705882353" d="M 323.5 108 L 328 108.5 L 323 109 Q 321.5 117.7 315.5 123 Q 310.5 128.5 298.5 127 L 298.5 126 Q 314.4 127.4 319 117.5 L 323.5 108 Z " /><path fill="rgb(73,94,203)" stroke="rgb(73,94,203)" stroke-width="1" opacity="0.5411764705882353" d="M 350.5 108 L 351 110.5 L 346.5 116 Q 341.8 116.8 341 113.5 L 341.5 112 L 343.5 115 Q 348.3 115.8 349 112.5 L 350.5 108 Z " /><path fill="rgb(73,94,203)" stroke="rgb(73,94,203)" stroke-width="1" opacity="0.5411764705882353" d="M 41.5 109 L 42 116.5 L 41 116.5 L 41.5 109 Z " /><path fill="rgb(73,94,203)" stroke="rgb(73,94,203)" stroke-width="1" opacity="0.5411764705882353" d="M 114.5 109 L 119.5 118 Q 124.7 123.3 134 124.5 L 130.5 125 Q 122 122.5 117 116.5 Q 112.8 113.9 114.5 109 Z " /><path fill="rgb(73,94,203)" stroke="rgb(73,94,203)" stroke-width="1" opacity="0.5411764705882353" d="M 310.5 109 L 311 110.5 L 308.5 114 L 306.5 115 L 310 110.5 L 310.5 109 Z " /><path fill="rgb(73,94,203)" stroke="rgb(73,94,203)" stroke-width="1" opacity="0.5411764705882353" d="M 363.5 109 L 364 113.5 L 363 113.5 L 363.5 109 Z " /><path fill="rgb(73,94,203)" stroke="rgb(73,94,203)" stroke-width="1" opacity="0.5411764705882353" d="M 256.5 110 L 257 112.5 L 256 112.5 L 256.5 110 Z " /><path fill="rgb(73,94,203)" stroke="rgb(73,94,203)" stroke-width="1" opacity="0.5411764705882353" d="M 298.5 110 L 302.5 115 L 305 115.5 L 302.5 116 L 299 114 L 298.5 110 Z " /><path fill="rgb(73,94,203)" stroke="rgb(73,94,203)" stroke-width="1" opacity="0.5411764705882353" d="M 170.5 111 L 173 111.5 L 170.5 112 L 170.5 111 Z " /><path fill="rgb(73,94,203)" stroke="rgb(73,94,203)" stroke-width="1" opacity="0.5411764705882353" d="M 165.5 112 L 169 112.5 L 165.5 113 L 165.5 112 Z " /><path fill="rgb(73,94,203)" stroke="rgb(73,94,203)" stroke-width="1" opacity="0.5411764705882353" d="M 154.5 113 L 164 113.5 L 154.5 114 L 154.5 113 Z " /><path fill="rgb(73,94,203)" stroke="rgb(73,94,203)" stroke-width="1" opacity="0.5411764705882353" d="M 257.5 114 L 259 117.5 L 258 117.5 L 257.5 114 Z " /><path fill="rgb(73,94,203)" stroke="rgb(73,94,203)" stroke-width="1" opacity="0.5411764705882353" d="M 328.5 114 Q 328.9 121.1 333.5 124 Q 336.8 127.2 344.5 126 L 349.5 123 L 350 124.5 L 332 140.5 L 329.5 144 L 331 141.5 L 341.5 130 L 345 127.5 Q 333.7 128.3 330 121.5 Q 327 118.8 328.5 114 Z " /><path fill="rgb(73,94,203)" stroke="rgb(73,94,203)" stroke-width="1" opacity="0.5411764705882353" d="M 362.5 115 L 363 119.5 L 362 119.5 L 362.5 115 Z " /><path fill="rgb(73,94,203)" stroke="rgb(73,94,203)" stroke-width="1" opacity="0.5411764705882353" d="M 259.5 119 L 262.5 123 Q 266.6 127.9 277.5 126 L 288.5 119 L 297 125.5 L 295.5 126 L 288.5 120 L 280.5 126 Q 275.7 128.2 267.5 127 L 260 121.5 L 259.5 119 Z " /><path fill="rgb(73,94,203)" stroke="rgb(73,94,203)" stroke-width="1" opacity="0.5411764705882353" d="M 41.5 120 L 43.5 124 L 50.5 126 L 70 126.5 L 50.5 127 L 45.5 126 L 41 122.5 L 41.5 120 Z " /><path fill="rgb(73,94,203)" stroke="rgb(73,94,203)" stroke-width="1" opacity="0.5411764705882353" d="M 361.5 121 L 362 125.5 L 361 125.5 L 361.5 121 Z " /><path fill="rgb(73,94,203)" stroke="rgb(73,94,203)" stroke-width="1" opacity="0.5411764705882353" d="M 135.5 125 L 139 125.5 L 135.5 126 L 135.5 125 Z " /><path fill="rgb(73,94,203)" stroke="rgb(73,94,203)" stroke-width="1" opacity="0.5411764705882353" d="M 360.5 127 L 361 130.5 L 360 130.5 L 360.5 127 Z " /><path fill="rgb(73,94,203)" stroke="rgb(73,94,203)" stroke-width="1" opacity="0.5411764705882353" d="M 359.5 132 L 360 134.5 L 359 134.5 L 359.5 132 Z " /><path fill="rgb(73,94,203)" stroke="rgb(73,94,203)" stroke-width="1" opacity="0.5411764705882353" d="M 358.5 136 L 359 139.5 L 357.5 143 L 357 140.5 L 358.5 136 Z " /><path fill="rgb(73,94,203)" stroke="rgb(73,94,203)" stroke-width="1" opacity="0.5411764705882353" d="M 346.5 138 L 347 141.5 L 346 141.5 L 345.5 140 L 337.5 149 L 338 147.5 L 344 139 L 346.5 138 Z " /><path fill="rgb(73,94,203)" stroke="rgb(73,94,203)" stroke-width="1" opacity="0.5411764705882353" d="M 345.5 143 L 346 145.5 L 343.5 151 L 343 149.5 L 345.5 143 Z " /><path fill="rgb(73,94,203)" stroke="rgb(73,94,203)" stroke-width="1" opacity="0.5411764705882353" d="M 356.5 144 L 357 146.5 L 354.5 152 L 354 150.5 L 356.5 144 Z " /><path fill="rgb(73,94,203)" stroke="rgb(73,94,203)" stroke-width="1" opacity="0.5411764705882353" d="M 328.5 145 L 328 146.5 L 325.5 153 L 325 150.5 L 328.5 145 Z " /><path fill="rgb(73,94,203)" stroke="rgb(73,94,203)" stroke-width="1" opacity="0.5411764705882353" d="M 342.5 152 L 343 153.5 L 341 154.5 L 342.5 152 Z " /><path fill="rgb(73,94,203)" stroke="rgb(73,94,203)" stroke-width="1" opacity="0.5411764705882353" d="M 353.5 153 L 354 154.5 Q 350.9 162.9 344.5 168 Q 340.5 171.5 331.5 170 L 325 164.5 L 325.5 163 L 329.5 168 Q 333 170.5 340.5 169 L 348 163.5 L 353.5 153 Z " /><path fill="rgb(73,94,203)" stroke="rgb(73,94,203)" stroke-width="1" opacity="0.5411764705882353" d="M 324.5 154 L 325 161.5 L 324 161.5 L 324.5 154 Z " /><path fill="rgb(73,94,203)" stroke="rgb(73,94,203)" stroke-width="1" opacity="0.5411764705882353" d="M 340.5 156 L 337.5 160 L 335 158.5 L 336.5 159 L 340.5 156 Z " /></svg>